<svg width="149" height="54" viewBox="0 0 149 54" fill="none" xmlns="http://www.w3.org/2000/svg">
<path d="M58.5828 37.8307V27.1641C58.5828 25.8388 58.9754 24.8018 59.7607 24.053C60.5459 23.3042 61.6263 22.9271 63.0016 22.9217H67.2909V26.3463H63.7235C63.5971 26.3447 63.4717 26.3671 63.3544 26.4123C63.2372 26.4575 63.1304 26.5246 63.0403 26.6097C62.9452 26.6954 62.8702 26.7995 62.8203 26.9151C62.7704 27.0308 62.7467 27.1553 62.7509 27.2804V37.8307H58.5828Z" fill="white"/>
<path d="M55.3221 26.0408C54.6096 24.8244 53.5931 23.8185 52.3745 23.1239C51.0706 22.4155 49.6132 22.0447 48.1327 22.0447C46.6522 22.0447 45.1948 22.4155 43.8909 23.1239C42.6729 23.8188 41.657 24.8246 40.945 26.0408C40.2343 27.294 39.8604 28.7131 39.8604 30.1574C39.8604 31.6016 40.2343 33.0208 40.945 34.274C41.6569 35.4904 42.6736 36.4959 43.8926 37.1892C45.1872 37.9214 46.6509 38.2937 48.1344 38.2679C49.6593 38.2727 51.1452 37.782 52.3728 36.8683V37.8613H56.405V30.3439C56.405 30.275 56.405 30.2128 56.405 30.1574C56.4242 28.7109 56.0496 27.2869 55.3221 26.0408ZM51.7291 32.466C51.4153 33.1332 50.9262 33.7004 50.3152 34.106C49.656 34.504 48.9024 34.7142 48.1344 34.7142C47.3664 34.7142 46.6128 34.504 45.9536 34.106C45.3417 33.7013 44.8524 33.1338 44.5397 32.466C44.213 31.7408 44.044 30.9533 44.044 30.1566C44.044 29.3598 44.213 28.5723 44.5397 27.8471C44.8529 27.1796 45.3421 26.6122 45.9536 26.2071C46.6131 25.8102 47.3666 25.6006 48.1344 25.6006C48.9021 25.6006 49.6556 25.8102 50.3152 26.2071C50.9259 26.6131 51.4148 27.1803 51.7291 27.8471C52.0558 28.5723 52.2248 29.3598 52.2248 30.1566C52.2248 30.9533 52.0558 31.7408 51.7291 32.466Z" fill="white"/>
<path d="M82.7522 26.0075C82.0408 24.8019 81.0258 23.8044 79.8087 23.1149C78.5044 22.4124 77.0465 22.0447 75.5656 22.0447C74.0846 22.0447 72.6267 22.4124 71.3225 23.1149C70.1038 23.8042 69.0871 24.8016 68.3739 26.0075C67.6641 27.2507 67.2908 28.6578 67.2908 30.0898C67.2908 31.5218 67.6641 32.929 68.3739 34.1721C69.0869 35.3778 70.1037 36.3747 71.3225 37.0631C72.6175 37.7892 74.0816 38.1583 75.5656 38.1328C77.0921 38.1382 78.5798 37.6516 79.8087 36.7448V43.9697H83.8355V30.2748C83.8355 30.2065 83.8355 30.1448 83.8355 30.0898C83.8546 28.6554 83.4799 27.2433 82.7522 26.0075ZM79.1581 32.3792C78.8442 33.0408 78.355 33.6033 77.7437 34.0055C77.0843 34.4002 76.3305 34.6087 75.5622 34.6087C74.794 34.6087 74.0402 34.4002 73.3808 34.0055C72.7687 33.6043 72.2793 33.0415 71.9664 32.3792C71.6397 31.6601 71.4706 30.8791 71.4706 30.089C71.4706 29.2989 71.6397 28.5179 71.9664 27.7987C72.2798 27.1368 72.7691 26.5742 73.3808 26.1725C74.0405 25.7788 74.7942 25.571 75.5622 25.571C76.3302 25.571 77.084 25.7788 77.7437 26.1725C78.3546 26.5751 78.8437 27.1375 79.1581 27.7987C79.4848 28.5179 79.6539 29.2989 79.6539 30.089C79.6539 30.8791 79.4848 31.6601 79.1581 32.3792Z" fill="white"/>
<path d="M93.1975 38.2692C91.6066 38.2692 90.2398 37.9658 89.0968 37.3589C88.0037 36.7982 87.0969 35.9533 86.4804 34.9208C85.8751 33.8885 85.5639 32.7212 85.5784 31.5366V22.9217H89.7704V31.5366C89.7641 32.1202 89.9232 32.6944 90.2307 33.1978C90.5292 33.6909 90.9562 34.1009 91.4696 34.3876C91.9962 34.6762 92.592 34.828 93.1983 34.828C93.8047 34.828 94.4005 34.6762 94.9271 34.3876C95.4398 34.1 95.8665 33.6902 96.1659 33.1978C96.4729 32.6943 96.6315 32.12 96.6246 31.5366V22.9217H100.817V31.5366C100.83 32.7195 100.519 33.8851 99.9146 34.9159C99.301 35.9455 98.4001 36.79 97.3134 37.3541C96.1817 37.9641 94.8098 38.2692 93.1975 38.2692Z" fill="white"/>
<path d="M105.203 20.692C104.597 20.6993 104.008 20.4959 103.535 20.1167C103.063 19.7374 102.737 19.2057 102.614 18.6127C102.49 18.0197 102.576 17.4022 102.858 16.8658C103.139 16.3294 103.598 15.9075 104.157 15.6722C104.715 15.437 105.337 15.4031 105.918 15.5763C106.498 15.7494 107.001 16.1189 107.339 16.6216C107.677 17.1242 107.83 17.7287 107.771 18.3316C107.713 18.9345 107.447 19.4984 107.018 19.9268C106.784 20.1718 106.502 20.3662 106.19 20.4978C105.878 20.6294 105.542 20.6955 105.203 20.692ZM103.131 37.8307V22.5177H107.281V37.8241L103.131 37.8307Z" fill="white"/>
<path d="M116.931 38.2689C116.069 38.2784 115.224 38.0333 114.504 37.5651C113.809 37.1295 113.28 36.4783 113.001 35.7138L108.654 22.9217H113.09L116.602 34.0607C116.635 34.1311 116.687 34.1916 116.752 34.2362C116.813 34.2774 116.886 34.2984 116.961 34.2964C117.039 34.2969 117.116 34.2761 117.183 34.2362C117.217 34.2181 117.246 34.193 117.269 34.1627C117.292 34.1325 117.308 34.0977 117.316 34.0607L120.853 22.9217H125.2L120.853 35.6829C120.574 36.4498 120.048 37.1056 119.356 37.5505C118.64 38.0272 117.795 38.2778 116.931 38.2689Z" fill="white"/>
<path d="M133.779 37.8307C132.047 37.8307 130.537 37.493 129.251 36.8176C128.021 36.1927 126.986 35.2349 126.262 34.0507C125.55 32.868 125.182 31.5064 125.2 30.122C125.2 28.4903 125.531 27.0693 126.192 25.8589C126.814 24.6878 127.745 23.7147 128.882 23.0486C130.056 22.3716 131.387 22.0252 132.738 22.0455C134.453 22.0455 135.843 22.4083 136.909 23.1339C137.964 23.8457 138.781 24.8623 139.255 26.0512C139.767 27.3434 140.021 28.7252 140.003 30.117C140.003 30.3193 139.993 30.555 139.973 30.8275C139.962 31.0366 139.933 31.2443 139.884 31.4477H129.565C129.705 32.0337 129.99 32.5743 130.392 33.0192C130.796 33.4548 131.299 33.7832 131.858 33.9755C132.497 34.1957 133.168 34.3032 133.842 34.2931H138.088V37.8307H133.779ZM129.544 28.6709H135.911C135.875 28.3071 135.805 27.9477 135.701 27.5976C135.609 27.2801 135.467 26.9793 135.282 26.7065C135.111 26.4508 134.899 26.225 134.656 26.0378C134.403 25.849 134.119 25.7059 133.817 25.6148C133.479 25.5117 133.126 25.4609 132.773 25.4644C132.315 25.4558 131.861 25.5482 131.442 25.7352C131.07 25.9041 130.739 26.1515 130.469 26.4608C130.209 26.7655 130.002 27.1133 129.858 27.4889C129.708 27.8693 129.603 28.2659 129.544 28.6709Z" fill="white"/>
<path d="M144.172 20.692C143.516 20.6989 142.878 20.4952 142.366 20.1157C141.855 19.7362 141.502 19.2045 141.369 18.6115C141.235 18.0185 141.329 17.401 141.634 16.8648C141.939 16.3286 142.437 15.9069 143.042 15.6719C143.646 15.4369 144.321 15.4031 144.949 15.5764C145.578 15.7497 146.122 16.1193 146.488 16.6219C146.854 17.1245 147.02 17.729 146.957 18.3318C146.893 18.9347 146.605 19.4985 146.141 19.9268C145.887 20.1721 145.581 20.3666 145.243 20.4983C144.904 20.6299 144.54 20.6958 144.172 20.692ZM141.93 37.8307V22.5177H146.425V37.8241L141.93 37.8307Z" fill="white"/>
<path d="M18.5232 12.7485C19.3886 12.7462 20.2347 13.0127 20.9516 13.5134C21.6684 14.0142 22.2229 14.726 22.543 15.5565C22.6025 15.7198 22.6148 15.8974 22.5783 16.0677C22.5418 16.2381 22.4581 16.3938 22.3375 16.5159L18.5232 20.4571L14.7073 16.5159C14.587 16.3936 14.5035 16.2379 14.467 16.0676C14.4306 15.8973 14.4426 15.7198 14.5018 15.5565C14.8219 14.7258 15.3767 14.0137 16.0938 13.513C16.811 13.0122 17.6575 12.7458 18.5232 12.7485ZM18.5232 9.76839C17.0816 9.76802 15.6729 10.2136 14.4788 11.0478C13.2847 11.8819 12.3599 13.0663 11.8235 14.4483C11.5526 15.1536 11.4881 15.9255 11.638 16.6683C11.7879 17.4111 12.1455 18.0921 12.6666 18.6269L18.5232 24.6757C18.5232 24.6757 21.0509 22.0616 24.3862 18.6252C24.9067 18.09 25.2638 17.4089 25.4133 16.6662C25.5629 15.9235 25.4984 15.1519 25.2277 14.4467C24.6917 13.0648 23.7671 11.8804 22.5733 11.0463C21.3794 10.2121 19.971 9.76646 18.5297 9.76672L18.5232 9.76839Z" fill="#00C8FF"/>
<path d="M9.29796 38.7074C8.59843 38.7074 7.90535 38.5748 7.25604 38.3166C5.56958 37.6451 4.12438 36.4882 3.10651 34.995C2.08863 33.5017 1.54468 31.7405 1.54468 29.938C1.54468 28.1354 2.08863 26.3742 3.10651 24.881C4.12438 23.3877 5.56958 22.2309 7.25604 21.5593C8.26068 21.1603 9.36153 21.0636 10.4212 21.2812C11.4809 21.4989 12.4525 22.0212 13.2148 22.7831L18.0867 27.617L22.9653 22.7831C23.7276 22.0212 24.6992 21.4989 25.7589 21.2812C26.8186 21.0636 27.9194 21.1603 28.9241 21.5593C30.6105 22.2309 32.0557 23.3877 33.0736 24.881C34.0915 26.3742 34.6354 28.1354 34.6354 29.938C34.6354 31.7405 34.0915 33.5017 33.0736 34.995C32.0557 36.4882 30.6105 37.6451 28.9241 38.3166C27.9193 38.7154 26.8183 38.8118 25.7586 38.5939C24.6989 38.376 23.7274 37.8533 22.9653 37.0911L18.0867 32.2589L13.2148 37.0911C12.7011 37.6027 12.0907 38.0087 11.4186 38.286C10.7465 38.5634 10.0259 38.7066 9.29796 38.7074ZM9.29796 24.4507C9.02112 24.45 8.74674 24.5023 8.48987 24.6047C7.4167 25.0322 6.49708 25.7686 5.84939 26.7189C5.2017 27.6692 4.85558 28.79 4.85558 29.9371C4.85558 31.0842 5.2017 32.2051 5.84939 33.1554C6.49708 34.1057 7.4167 34.842 8.48987 35.2695C8.89308 35.4282 9.33444 35.4657 9.75899 35.3774C10.1835 35.289 10.5725 35.0787 10.8774 34.7727L15.7493 29.9388L10.8757 25.1049C10.669 24.8982 10.4233 24.7341 10.1526 24.6219C9.88181 24.5096 9.5914 24.4515 9.29796 24.4507ZM25.3027 34.7711C25.6073 35.0771 25.9959 35.2875 26.4202 35.3758C26.8445 35.4642 27.2857 35.4266 27.6886 35.2679C28.7617 34.8403 29.6814 34.104 30.3291 33.1537C30.9767 32.2034 31.3229 31.0826 31.3229 29.9355C31.3229 28.7884 30.9767 27.6675 30.3291 26.7172C29.6814 25.7669 28.7617 25.0306 27.6886 24.6031C27.2856 24.4445 26.8445 24.4071 26.4203 24.4954C25.996 24.5838 25.6074 24.794 25.3027 25.0999L20.4308 29.9322L25.3027 34.7711Z" fill="white"/>
</svg>
