<?xml version="1.0" encoding="UTF-8"?>
<svg xmlns="http://www.w3.org/2000/svg" xmlns:xlink="http://www.w3.org/1999/xlink" id="Grupo_163284" data-name="Grupo 163284" width="714.386" height="454.704" viewBox="0 0 714.386 454.704">
  <defs>
    <clipPath id="clip-path">
      <rect id="Retângulo_1216" data-name="Retângulo 1216" width="714.386" height="454.704" fill="none"></rect>
    </clipPath>
    <clipPath id="clip-path-2">
      <rect id="Retângulo_1211" data-name="Retângulo 1211" width="136.186" height="64.439" fill="none"></rect>
    </clipPath>
    <clipPath id="clip-path-3">
      <rect id="Retângulo_1212" data-name="Retângulo 1212" width="175.04" height="39.583" fill="none"></rect>
    </clipPath>
    <clipPath id="clip-path-4">
      <rect id="Retângulo_1213" data-name="Retângulo 1213" width="382.476" height="288.545" fill="none"></rect>
    </clipPath>
    <clipPath id="clip-path-5">
      <rect id="Retângulo_1215" data-name="Retângulo 1215" width="67.67" height="67.67" fill="none"></rect>
    </clipPath>
  </defs>
  <g id="Grupo_163296" data-name="Grupo 163296" clip-path="url(#clip-path)">
    <path id="Caminho_2384" data-name="Caminho 2384" d="M250.808,100.086l-.075,10.835a7.5,7.5,0,0,1-7.554,7.45l-7.139-.05a7.337,7.337,0,0,0-6.936,4.732q-.907,2.418-2.035,4.721a7.485,7.485,0,0,0,1.4,8.546l4.987,5.058a7.5,7.5,0,0,1-.074,10.609l-7.715,7.608a7.5,7.5,0,0,1-10.608-.073l-5.086-5.157a7.488,7.488,0,0,0-8.488-1.54q-2.193,1.021-4.49,1.846a7.609,7.609,0,0,0-5.027,7.116l-.049,7.133a7.5,7.5,0,0,1-7.554,7.449l-10.835-.076a7.5,7.5,0,0,1-7.449-7.553l.047-6.79a7.6,7.6,0,0,0-5.055-7.229q-2.487-.88-4.856-1.993a7.309,7.309,0,0,0-8.228,1.445l-4.916,4.847a7.5,7.5,0,0,1-10.608-.073l-7.609-7.715a7.5,7.5,0,0,1,.074-10.608l4.386-4.326a7.465,7.465,0,0,0,1.49-8.587,53.263,53.263,0,0,1-2.255-5.323,7.441,7.441,0,0,0-6.968-4.863l-6.05-.043a7.5,7.5,0,0,1-7.45-7.554l.075-10.835a7.5,7.5,0,0,1,7.554-7.449l5.509.038a7.511,7.511,0,0,0,7.143-5.062,53.1,53.1,0,0,1,2.3-5.575,7.509,7.509,0,0,0-1.409-8.533l-3.823-3.876a7.5,7.5,0,0,1,.074-10.608l7.715-7.609a7.5,7.5,0,0,1,10.608.074l3.724,3.777a7.508,7.508,0,0,0,8.553,1.507,53.268,53.268,0,0,1,5.7-2.291,7.5,7.5,0,0,0,5.125-7.06l.038-5.33a7.5,7.5,0,0,1,7.553-7.45l10.835.075a7.5,7.5,0,0,1,7.45,7.554l-.04,5.677a7.507,7.507,0,0,0,4.889,7.082,52.974,52.974,0,0,1,5.356,2.346,7.521,7.521,0,0,0,8.688-1.33l4.114-4.057a7.5,7.5,0,0,1,10.608.074l7.609,7.715a7.5,7.5,0,0,1-.074,10.608L229.387,73.9a7.452,7.452,0,0,0-1.6,8.354,53.143,53.143,0,0,1,2.026,5.214,7.344,7.344,0,0,0,6.941,5.015l6.6.046a7.5,7.5,0,0,1,7.449,7.554m-53.32,3.2a18.122,18.122,0,1,0-20.014,19.739,18.176,18.176,0,0,0,20.014-19.739" transform="translate(-39.32 -12.24)" fill="#f2eaf7"></path>
    <path id="Caminho_2385" data-name="Caminho 2385" d="M239.837,379.893l-.127,18.209a12.607,12.607,0,0,1-12.694,12.518l-12-.083a12.332,12.332,0,0,0-11.656,7.951q-1.523,4.065-3.419,7.936a12.579,12.579,0,0,0,2.36,14.361l8.382,8.5a12.605,12.605,0,0,1-.124,17.827L197.6,479.9a12.607,12.607,0,0,1-17.827-.123l-8.546-8.665a12.581,12.581,0,0,0-14.265-2.588q-3.687,1.715-7.546,3.1a12.785,12.785,0,0,0-8.448,11.957l-.083,11.986a12.606,12.606,0,0,1-12.694,12.518l-18.208-.127a12.606,12.606,0,0,1-12.518-12.694l.08-11.409a12.779,12.779,0,0,0-8.5-12.148q-4.18-1.478-8.161-3.35a12.284,12.284,0,0,0-13.826,2.43L58.8,478.932a12.606,12.606,0,0,1-17.827-.124L28.186,465.843a12.606,12.606,0,0,1,.124-17.826l7.371-7.27a12.544,12.544,0,0,0,2.5-14.43,89.575,89.575,0,0,1-3.79-8.943A12.5,12.5,0,0,0,22.686,409.2l-10.167-.071A12.606,12.606,0,0,1,0,396.435l.127-18.209A12.606,12.606,0,0,1,12.82,365.708l9.258.064a12.621,12.621,0,0,0,12-8.508,89.317,89.317,0,0,1,3.861-9.368,12.618,12.618,0,0,0-2.368-14.339l-6.423-6.515a12.6,12.6,0,0,1,.123-17.826l12.964-12.786a12.606,12.606,0,0,1,17.827.123l6.259,6.346A12.619,12.619,0,0,0,80.7,305.435a89.456,89.456,0,0,1,9.581-3.85,12.614,12.614,0,0,0,8.612-11.865l.062-8.956a12.607,12.607,0,0,1,12.694-12.518l18.208.127a12.606,12.606,0,0,1,12.518,12.694l-.067,9.54a12.616,12.616,0,0,0,8.216,11.9,89.193,89.193,0,0,1,9,3.943,12.64,12.64,0,0,0,14.6-2.235l6.914-6.819a12.607,12.607,0,0,1,17.828.125l12.786,12.964a12.607,12.607,0,0,1-.123,17.828l-7.689,7.582a12.521,12.521,0,0,0-2.682,14.038,89.6,89.6,0,0,1,3.406,8.762,12.343,12.343,0,0,0,11.664,8.427l11.091.078a12.606,12.606,0,0,1,12.519,12.693m-74.6,3.938a45.527,45.527,0,1,0-50.282,49.59,45.663,45.663,0,0,0,50.282-49.59" transform="translate(0 -97.582)" fill="#f2eaf7"></path>
    <path id="Caminho_2386" data-name="Caminho 2386" d="M57.352,236.7a22.4,22.4,0,1,0,22.4-22.4,22.4,22.4,0,0,0-22.4,22.4" transform="translate(-20.863 -77.959)" fill="#f2eaf7"></path>
    <g id="Grupo_163286" data-name="Grupo 163286" transform="translate(279.782 333.397)" style="isolation: isolate">
      <g id="Grupo_163285" data-name="Grupo 163285">
        <g id="Grupo_163284-2" data-name="Grupo 163284" clip-path="url(#clip-path-2)">
          <path id="Caminho_2387" data-name="Caminho 2387" d="M565.335,588.468H450.364a10.608,10.608,0,0,1-10.608-10.608V534.636a10.608,10.608,0,0,1,10.608-10.608H565.335a10.608,10.608,0,0,1,10.608,10.608V577.86a10.608,10.608,0,0,1-10.608,10.608" transform="translate(-439.756 -524.028)" fill="#04bc99"></path>
        </g>
      </g>
    </g>
    <g id="Grupo_163289" data-name="Grupo 163289" transform="translate(260.355 373.878)" style="isolation: isolate">
      <g id="Grupo_163288" data-name="Grupo 163288">
        <g id="Grupo_163287" data-name="Grupo 163287" clip-path="url(#clip-path-3)">
          <path id="Caminho_2388" data-name="Caminho 2388" d="M573.654,627.239H419.829a10.608,10.608,0,0,1-10.608-10.608V598.263a10.607,10.607,0,0,1,10.608-10.607H573.654a10.607,10.607,0,0,1,10.608,10.607v18.368a10.608,10.608,0,0,1-10.608,10.608" transform="translate(-409.221 -587.655)" fill="#03d6b5"></path>
        </g>
      </g>
    </g>
    <g id="Grupo_163292" data-name="Grupo 163292" transform="translate(156.637 54.31)" style="isolation: isolate">
      <g id="Grupo_163291" data-name="Grupo 163291">
        <g id="Grupo_163290" data-name="Grupo 163290" clip-path="url(#clip-path-4)">
          <path id="Caminho_2389" data-name="Caminho 2389" d="M628.675,321.059V138.211a52.848,52.848,0,0,0-52.848-52.848H299.047A52.848,52.848,0,0,0,246.2,138.211V321.059a52.848,52.848,0,0,0,52.848,52.848H575.828a52.848,52.848,0,0,0,52.848-52.848" transform="translate(-246.199 -85.363)" fill="#03d6b5"></path>
        </g>
      </g>
    </g>
    <path id="Caminho_2390" data-name="Caminho 2390" d="M312.346,121.921h276.78a29.59,29.59,0,0,1,29.589,29.589V334.358a29.589,29.589,0,0,1-29.589,29.589H312.346a29.589,29.589,0,0,1-29.589-29.589V151.51a29.59,29.59,0,0,1,29.589-29.589" transform="translate(-102.861 -44.352)" fill="#6b499e"></path>
    <path id="Caminho_2391" data-name="Caminho 2391" d="M312.346,121.921h138.39V363.948H312.346a29.589,29.589,0,0,1-29.589-29.589V151.51a29.59,29.59,0,0,1,29.589-29.589" transform="translate(-102.861 -44.352)" fill="#a377b7"></path>
    <path id="Caminho_2392" data-name="Caminho 2392" d="M466.8,343.5H331.766A10.607,10.607,0,0,1,321.159,332.9V207.566a10.607,10.607,0,0,1,10.607-10.608H466.8A10.608,10.608,0,0,1,477.4,207.566V332.9A10.608,10.608,0,0,1,466.8,343.5" transform="translate(-116.831 -71.649)" fill="#fff"></path>
    <path id="Caminho_2393" data-name="Caminho 2393" d="M459.765,368.516H362.5a3.391,3.391,0,0,1-3.391-3.391v-6a3.391,3.391,0,0,1,3.391-3.391h97.262a3.391,3.391,0,0,1,3.391,3.391v6a3.391,3.391,0,0,1-3.391,3.391" transform="translate(-130.637 -129.408)" fill="#ff7f00"></path>
    <path id="Caminho_2394" data-name="Caminho 2394" d="M459.765,321.238H362.5a3.391,3.391,0,0,1-3.391-3.391V294.565a3.391,3.391,0,0,1,3.391-3.392h97.262a3.391,3.391,0,0,1,3.391,3.392v23.283a3.391,3.391,0,0,1-3.391,3.391" transform="translate(-130.637 -105.923)" fill="#d9dfed"></path>
    <path id="Caminho_2395" data-name="Caminho 2395" d="M459.765,262.076H362.5a3.391,3.391,0,0,1-3.391-3.391V235.4a3.391,3.391,0,0,1,3.391-3.392h97.262a3.391,3.391,0,0,1,3.391,3.392v23.283a3.391,3.391,0,0,1-3.391,3.391" transform="translate(-130.637 -84.401)" fill="#d9dfed"></path>
    <path id="Caminho_2396" data-name="Caminho 2396" d="M707.825,219.817H589.107a3.391,3.391,0,0,1,0-6.783H707.825a3.391,3.391,0,0,1,0,6.783" transform="translate(-213.071 -77.497)" fill="#d9dfed"></path>
    <path id="Caminho_2397" data-name="Caminho 2397" d="M707.825,247.11H589.107a3.391,3.391,0,0,1,0-6.783H707.825a3.391,3.391,0,0,1,0,6.783" transform="translate(-213.071 -87.426)" fill="#d9dfed"></path>
    <path id="Caminho_2398" data-name="Caminho 2398" d="M707.825,274.4H589.107a3.391,3.391,0,0,1,0-6.783H707.825a3.391,3.391,0,0,1,0,6.783" transform="translate(-213.071 -97.354)" fill="#d9dfed"></path>
    <path id="Caminho_2399" data-name="Caminho 2399" d="M636.493,301.695H589.107a3.391,3.391,0,0,1,0-6.783h47.386a3.391,3.391,0,0,1,0,6.783" transform="translate(-213.071 -107.283)" fill="#d9dfed"></path>
    <path id="Caminho_2400" data-name="Caminho 2400" d="M857.813,50.5,894.2,2.075a5.2,5.2,0,0,1,8.411.14l30.355,43.328a5.2,5.2,0,0,1-3.861,8.163L862.363,58.8a5.2,5.2,0,0,1-4.55-8.3" transform="translate(-311.671 0)" fill="#f2eaf7"></path>
    <path id="Caminho_2401" data-name="Caminho 2401" d="M811.7,42.569l-12.54-24.205a5.2,5.2,0,0,1,3.306-7.42L819.5,6.514a5.2,5.2,0,0,1,6.442,5.834l-4.489,28.636a5.2,5.2,0,0,1-9.748,1.585" transform="translate(-290.506 -2.307)" fill="#f2eaf7"></path>
    <path id="Caminho_2402" data-name="Caminho 2402" d="M1014.39,541.632c-.035-63.67.159-79.747-2.566-95.426-4.765-27.417-28.725-27.4-28.725-27.4-7.249-23.313-33.472-18.387-33.472-18.387-8.282-10.751-21.2-9.893-21.2-9.893-63.049-31.443-94.634-33.641-100.032-9.453-4.723,21.168,9.872,27.25,45.511,40.447,20.456,7.574,20.274,12.079,19.191,31.318-1.117,19.833-4.13,18.144-24.785,24.007-26.424,7.5-35.367,17.324-31.915,33.643,3,14.2,16.525,16.791,36.051,11.981,17.356-4.275,9.849,14.634,30.65,19.165v44.708h111.288V541.632Z" transform="translate(-301.041 -132.672)" fill="#fff"></path>
    <path id="Caminho_2403" data-name="Caminho 2403" d="M1013.8,586.788H902.507a1.035,1.035,0,0,1-1.036-1.036V541.868c-9.949-2.425-13.434-8.172-16.249-12.814-2.988-4.926-4.961-8.179-13.118-6.17-13.337,3.285-23.3,2.943-29.613-1.018-3.988-2.5-6.578-6.458-7.7-11.756-1.827-8.634-.187-15.521,5.013-21.052s13.992-9.93,27.633-13.8c2.348-.666,4.49-1.241,6.379-1.748,14.8-3.973,16.705-4.483,17.653-21.32,1.07-19,1.293-22.954-18.516-30.289-18.734-6.937-30.65-11.568-38.166-17.387-8.014-6.2-10.406-13.459-8-24.257,1.549-6.941,5.234-11.841,10.952-14.564,15.052-7.165,44.6.422,90.312,23.2,2.014-.066,13.489.013,21.411,9.821a39.851,39.851,0,0,1,13.809.56c6.941,1.565,15.976,5.954,19.99,17.94a31.828,31.828,0,0,1,12.291,3.507c6.217,3.232,14.159,10.145,16.692,24.725,2.555,14.7,2.56,29.222,2.576,83.253l.005,12.35v44.709a1.037,1.037,0,0,1-1.036,1.036m-110.252-2.072h109.216V541.044l-.006-12.35c-.017-53.89-.022-68.374-2.545-82.9-1.918-11.035-7.169-18.854-15.607-23.241a29.2,29.2,0,0,0-12.1-3.3,1.035,1.035,0,0,1-.989-.728c-2.882-9.268-9.149-15.061-18.629-17.219a37.844,37.844,0,0,0-13.664-.458,1.035,1.035,0,0,1-1.011-.386c-7.831-10.164-20.184-9.5-20.308-9.492a1.037,1.037,0,0,1-.529-.107c-22.646-11.293-41.6-18.95-56.33-22.756-14.429-3.728-25.332-3.91-32.408-.541-5.185,2.469-8.4,6.767-9.82,13.144-4.44,19.9,8.06,25.624,44.86,39.25,21.243,7.866,20.952,13.053,19.865,32.348-1.033,18.333-4.159,19.172-19.185,23.2-1.883.505-4.017,1.078-6.351,1.741-13.083,3.713-21.813,8.04-26.689,13.227-4.766,5.071-6.194,11.173-4.495,19.2,1,4.728,3.279,8.237,6.773,10.43,5.818,3.651,15.244,3.908,28.016.761,9.633-2.372,12.427,2.232,15.384,7.107,2.826,4.658,6.028,9.938,15.734,12.052a1.036,1.036,0,0,1,.816,1.012Z" transform="translate(-300.445 -132.084)" fill="#3f2a68"></path>
    <path id="Caminho_2404" data-name="Caminho 2404" d="M1035.815,504.991h-.231c-8.7-.1-18.146-5.812-18.327-18.12-.009-.587.008-1.158.025-1.71.013-.433.026-.859.025-1.279-.021-12.819,2.969-22.279,8.886-28.116,7.087-6.993,17.088-7.8,25.937-7.665a1.035,1.035,0,0,1,1.019,1.051,1.024,1.024,0,0,1-1.051,1.021c-8.418-.127-17.907.613-24.45,7.067-5.507,5.434-8.289,14.4-8.269,26.639,0,.442-.013.89-.027,1.345-.016.529-.032,1.076-.024,1.616.161,10.922,8.551,15.991,16.279,16.079s16.229-4.788,16.639-15.7c.027-.727.041-1.445.041-2.137a1.036,1.036,0,1,1,2.072,0c0,.717-.014,1.462-.042,2.215-.458,12.19-9.866,17.7-18.5,17.7" transform="translate(-370.056 -163.005)" fill="#3f2a68"></path>
    <path id="Caminho_2405" data-name="Caminho 2405" d="M1000.012,489.9a22.415,22.415,0,0,1-14.314-5.2,22.807,22.807,0,0,1-8.334-18.384,130.72,130.72,0,0,1,1.682-17.779c2.428-14.319,9.053-21.528,14.183-25.053a24.021,24.021,0,0,1,10.821-4.28,1.035,1.035,0,0,1,.155,2.065,22.447,22.447,0,0,0-9.9,3.989c-6.831,4.739-11.4,12.909-13.219,23.625a128.6,128.6,0,0,0-1.654,17.5,20.747,20.747,0,0,0,7.583,16.725,20.3,20.3,0,0,0,17.46,4.226,13.065,13.065,0,0,0,2.537-.925,1.036,1.036,0,1,1,.881,1.875,15.092,15.092,0,0,1-2.967,1.071,22.549,22.549,0,0,1-4.917.546" transform="translate(-355.541 -152.498)" fill="#3f2a68"></path>
    <path id="Caminho_2406" data-name="Caminho 2406" d="M956.267,480.583a20.386,20.386,0,0,1-9.492-2.378,19.94,19.94,0,0,1-10.847-17.8c-.592-24.96,3.018-40.565,11.362-49.109,5.021-5.141,11.742-7.64,20.549-7.64a1.036,1.036,0,1,1,0,2.072c-8.219,0-14.456,2.295-19.067,7.016-7.819,8.007-11.343,23.581-10.773,47.613a18.228,18.228,0,0,0,28.517,14.928l.738-.5a1.036,1.036,0,1,1,1.167,1.711l-.737.5a20.184,20.184,0,0,1-11.418,3.586" transform="translate(-340.449 -146.842)" fill="#3f2a68"></path>
    <path id="Caminho_2407" data-name="Caminho 2407" d="M995.756,578.072a1.036,1.036,0,0,1-1.034-1c-.706-20.383-7.95-35.1-20.947-42.55-13.665-7.836-31.852-6.229-42.028-.738a1.036,1.036,0,0,1-.984-1.823c10.935-5.9,29.575-7.533,44.042.764,9.519,5.459,21.061,17.571,21.987,44.275a1.036,1.036,0,0,1-1,1.071h-.036" transform="translate(-338.394 -191.716)" fill="#3f2a68"></path>
    <rect id="Retângulo_1214" data-name="Retângulo 1214" width="111.288" height="44.708" transform="translate(602.062 408.96)" fill="#3f2a68"></rect>
    <path id="Caminho_2408" data-name="Caminho 2408" d="M883.36,604.118a1.037,1.037,0,0,1-1.022-.874,15.867,15.867,0,0,0-31.1-1.174,1.036,1.036,0,1,1-2.016-.477,17.938,17.938,0,0,1,35.166,1.327,1.035,1.035,0,0,1-.861,1.185.946.946,0,0,1-.164.013" transform="translate(-308.918 -213.831)" fill="#3f2a68"></path>
    <path id="Caminho_2409" data-name="Caminho 2409" d="M863.216,386.6a17.937,17.937,0,0,1-17.88-19.36,1.036,1.036,0,0,1,2.065.163,15.865,15.865,0,1,0,31.68,1.26,1.036,1.036,0,1,1,2.072,0A17.936,17.936,0,0,1,863.216,386.6" transform="translate(-307.495 -133.247)" fill="#3f2a68"></path>
    <path id="Caminho_2410" data-name="Caminho 2410" d="M991.425,507.454a1.036,1.036,0,0,1-.435-1.976,15.869,15.869,0,0,0-11.1-29.639,1.036,1.036,0,0,1-.576-1.989,17.941,17.941,0,0,1,12.542,33.509,1.034,1.034,0,0,1-.434.1" transform="translate(-355.983 -172.117)" fill="#3f2a68"></path>
    <path id="Caminho_2411" data-name="Caminho 2411" d="M951.288,504.268a1.036,1.036,0,0,1-.524-1.93,15.869,15.869,0,0,0-13.29-28.666,1.036,1.036,0,1,1-.69-1.953,18.037,18.037,0,0,1,18.665,4.23,17.937,17.937,0,0,1,0,25.366,18.047,18.047,0,0,1-3.64,2.811,1.03,1.03,0,0,1-.522.142" transform="translate(-340.531 -171.233)" fill="#3f2a68"></path>
    <path id="Caminho_2412" data-name="Caminho 2412" d="M831.7,517.038H714.092a18.806,18.806,0,0,1-18.805-18.805V431.9a18.805,18.805,0,0,1,18.806-18.805H831.7A18.8,18.8,0,0,1,850.506,431.9v66.335A18.805,18.805,0,0,1,831.7,517.038" transform="translate(-252.931 -150.274)" fill="#ff7f00"></path>
    <g id="Grupo_163295" data-name="Grupo 163295" transform="translate(456.298 280.956)" style="isolation: isolate">
      <g id="Grupo_163294" data-name="Grupo 163294">
        <g id="Grupo_163293" data-name="Grupo 163293" clip-path="url(#clip-path-5)">
          <path id="Caminho_2413" data-name="Caminho 2413" d="M784.871,475.436A33.835,33.835,0,1,1,751.036,441.6a33.835,33.835,0,0,1,33.835,33.835" transform="translate(-717.201 -441.601)" fill="#6b499e"></path>
        </g>
      </g>
    </g>
    <path id="Caminho_2414" data-name="Caminho 2414" d="M748.8,483.024a9.765,9.765,0,1,1,9.765-9.765,9.776,9.776,0,0,1-9.765,9.765m0-17.459a7.694,7.694,0,1,0,7.694,7.694,7.7,7.7,0,0,0-7.694-7.694" transform="translate(-268.846 -168.609)" fill="#fff"></path>
    <path id="Caminho_2415" data-name="Caminho 2415" d="M781.1,514.606a9.765,9.765,0,1,1,9.765-9.765,9.776,9.776,0,0,1-9.765,9.765m0-17.459a7.694,7.694,0,1,0,7.694,7.694,7.7,7.7,0,0,0-7.694-7.694" transform="translate(-280.596 -180.098)" fill="#fff"></path>
    <path id="Caminho_2416" data-name="Caminho 2416" d="M755.863,498.815a1.036,1.036,0,0,1-.723-1.778l17.917-17.459a1.036,1.036,0,0,1,1.446,1.484l-17.917,17.459a1.032,1.032,0,0,1-.723.294" transform="translate(-274.59 -174.354)" fill="#fff"></path>
    <path id="Caminho_2417" data-name="Caminho 2417" d="M909.12,548.394H896.105a1.036,1.036,0,0,1,0-2.072H909.12a1.036,1.036,0,0,1,0,2.072" transform="translate(-325.608 -198.741)" fill="#fff"></path>
    <path id="Caminho_2418" data-name="Caminho 2418" d="M879.122,498.921H846.96a10.013,10.013,0,0,1,0-20.025h32.162a10.013,10.013,0,0,1,0,20.025M846.96,480.968a7.941,7.941,0,0,0,0,15.881h32.162a7.941,7.941,0,0,0,0-15.881Z" transform="translate(-304.464 -174.212)" fill="#fff"></path>
    <path id="Caminho_2419" data-name="Caminho 2419" d="M1030.631,516.087a1.036,1.036,0,0,1-.339-2.015,15.868,15.868,0,0,0,6.017-26.21,15.878,15.878,0,0,0-15.657-4.017,1.035,1.035,0,1,1-.577-1.989,17.938,17.938,0,0,1,17.7,29.906,17.768,17.768,0,0,1-6.8,4.267,1.035,1.035,0,0,1-.339.057" transform="translate(-370.811 -175.03)" fill="#3f2a68"></path>
  </g>
</svg>
