<?xml version="1.0" encoding="UTF-8"?>
<svg xmlns="http://www.w3.org/2000/svg" width="122" height="82.897" viewBox="0 0 122 82.897">
  <g id="Material_de_construção" data-name="Material de construção" transform="translate(-424 -772.5)">
    <circle id="Elipse_29" data-name="Elipse 29" cx="20" cy="20" r="20" transform="translate(506 799)" fill="#5ed3b6" opacity="0.778"></circle>
    <g id="Grupo_162487" data-name="Grupo 162487" transform="translate(14.805 41.092)">
      <path id="Caminho_725" data-name="Caminho 725" d="M14,61.81V28.1A5.1,5.1,0,0,1,19.1,23H81.081a5.1,5.1,0,0,1,5.1,5.1v33.65" transform="translate(423.832 715.922)" fill="none" stroke="#3f2a68" stroke-linecap="round" stroke-miterlimit="10" stroke-width="3"></path>
      <path id="Caminho_726" data-name="Caminho 726" d="M34,76.254V45.812A2.7,2.7,0,0,1,36.573,43H94.047a2.7,2.7,0,0,1,2.573,2.812V76.254" transform="translate(408.611 700.768)" fill="none" stroke="#3f2a68" stroke-linecap="round" stroke-miterlimit="10" stroke-width="3"></path>
      <path id="Caminho_727" data-name="Caminho 727" d="M76.455,245.891a4.7,4.7,0,0,1-4.7,4.7H5.7a4.7,4.7,0,0,1-4.7-4.7V219.7A4.7,4.7,0,0,1,5.7,215H71.758a4.7,4.7,0,0,1,4.7,4.7v12.936" transform="translate(435.195 562.217)" fill="none" stroke="#3f2a68" stroke-linecap="round" stroke-miterlimit="10" stroke-width="3"></path>
      <line id="Linha_55" data-name="Linha 55" y2="0.814" transform="translate(511.648 801.111)" fill="none" stroke="#3f2a68" stroke-linecap="round" stroke-miterlimit="10" stroke-width="3"></line>
      <path id="Caminho_728" data-name="Caminho 728" d="M163.183,247.268H141.634a2.634,2.634,0,0,1,0-5.268h21.549a2.634,2.634,0,1,1,0,5.268Z" transform="translate(321.514 541.469)" fill="none" stroke="#3f2a68" stroke-linecap="round" stroke-miterlimit="10" stroke-width="3"></path>
      <path id="Caminho_729" data-name="Caminho 729" d="M163.36,6.624H139V3.812A2.628,2.628,0,0,1,141.392,1h19.575a2.628,2.628,0,0,1,2.393,2.812Z" transform="translate(322.742 731.908)" fill="none" stroke="#3f2a68" stroke-linecap="round" stroke-miterlimit="10" stroke-width="3"></path>
      <line id="Linha_56" data-name="Linha 56" y1="14.874" transform="translate(488.436 762.149)" fill="none" stroke="#3f2a68" stroke-linecap="round" stroke-linejoin="round" stroke-width="3"></line>
      <line id="Linha_57" data-name="Linha 57" y2="14.874" transform="translate(484.082 762.149)" fill="none" stroke="#3f2a68" stroke-linecap="round" stroke-linejoin="round" stroke-width="3"></line>
      <path id="Caminho_730" data-name="Caminho 730" d="M213.778,80.707c-.72,0-1.569-2.177-3.265-2.177-1.162,0-2.995.946-3.238,3.718a.7.7,0,0,1-.693.635h-3.106a.7.7,0,0,1-.681-.553c-.252-1.173-1.052-3.8-3.166-3.8-3.912,0-3.971.548-4.955,1.668a.694.694,0,0,1-.993.047c-.364-.338-.859-.813-1.266-1.251a.7.7,0,0,1-.024-.921c3.416-4.11,5.149-6.073,9.415-6.073h4.353c1.62,0,2.831,2.177,4.353,2.177,1.913,0,2.48-2.177,4.353-2.177h.392a.7.7,0,0,1,.7.7v7.314a.7.7,0,0,1-.7.7Z" transform="translate(281.189 679.266)" fill="none" stroke="#3f2a68" stroke-linecap="round" stroke-linejoin="round" stroke-width="3"></path>
      <path id="Caminho_731" data-name="Caminho 731" d="M78.946,97.606V87.815a.562.562,0,0,1,.338-.511,8.042,8.042,0,0,0,5.1-7.475,8.706,8.706,0,0,0-4.709-7.737.5.5,0,0,0-.731.446V79.26a.57.57,0,0,1-.57.569H72.985a.57.57,0,0,1-.57-.569V72.539a.5.5,0,0,0-.732-.446,8.706,8.706,0,0,0-4.708,7.736,8.042,8.042,0,0,0,5.1,7.475.562.562,0,0,1,.338.511v9.791" transform="translate(383.724 679.236)" fill="none" stroke="#3f2a68" stroke-linecap="round" stroke-linejoin="round" stroke-width="3"></path>
    </g>
    <circle id="Elipse_68" data-name="Elipse 68" cx="20" cy="20" r="20" transform="translate(424 799)" fill="#5ed3b6" opacity="0"></circle>
  </g>
</svg>
