<?xml version="1.0" encoding="UTF-8"?>
<svg xmlns="http://www.w3.org/2000/svg" width="75.445" height="90.435" viewBox="0 0 75.445 90.435">
  <g id="Açougue_casa_de_carnes_e_peixarias" data-name="Açougue, casa de carnes e peixarias" transform="translate(-1162.001 -761)">
    <circle id="Elipse_32" data-name="Elipse 32" cx="20" cy="20" r="20" transform="translate(1185 761)" fill="#f08532" opacity="0.817"></circle>
    <g id="Grupo_162488" data-name="Grupo 162488" transform="translate(1061.727 649.213)">
      <path id="Caminho_706" data-name="Caminho 706" d="M160.484,185.062c-.584,0-1.151-.016-1.7-.05a1.461,1.461,0,0,1-.85-.339c-1.65-1.388-3.3-2.862-4.861-4.338-1.6-1.6-2.992-3.255-4.347-4.859a1.714,1.714,0,0,1-.39-.908c-.735-11.98,6.69-31.883,14.989-40.182a29.95,29.95,0,0,1,5.643-4.567,1.456,1.456,0,1,1,1.564,2.455,27.153,27.153,0,0,0-5.12,4.143c-7.605,7.6-14.65,26.324-14.192,37.5,1.257,1.489,2.52,2.966,3.883,4.331,1.379,1.3,2.851,2.624,4.336,3.884,11.014.48,29.886-6.586,37.465-14.163a27.317,27.317,0,0,0,4.173-5.15,1.456,1.456,0,0,1,2.455,1.564,30.251,30.251,0,0,1-4.595,5.672C191.044,177.944,172.569,185.062,160.484,185.062Z" transform="translate(-29.149 -1.702)" fill="#3f2a68"></path>
      <path id="Caminho_707" data-name="Caminho 707" d="M115.332,271.048a7.721,7.721,0,0,1-5.486-2.29,8.005,8.005,0,0,1-2.222-5.062,7.713,7.713,0,0,1-7.348-7.8,7.79,7.79,0,0,1,11.041-6.946l8.29-8.371a1.458,1.458,0,0,1,2.072,2.051l-9.081,9.167a1.463,1.463,0,0,1-1.862.174,4.861,4.861,0,0,0-7.546,3.95,4.853,4.853,0,0,0,1.437,3.5,4.943,4.943,0,0,0,4.291,1.309,1.456,1.456,0,0,1,1.682,1.685,5,5,0,0,0,1.337,4.318,4.841,4.841,0,0,0,7.4-6.169,1.458,1.458,0,0,1,.195-1.833l9.167-9.079a1.455,1.455,0,1,1,2.048,2.068l-8.387,8.309a7.817,7.817,0,0,1-1.544,8.733A7.715,7.715,0,0,1,115.332,271.048Z" transform="translate(0 -68.826)" fill="#3f2a68"></path>
      <path id="Caminho_708" data-name="Caminho 708" d="M227.736,164.45a16.458,16.458,0,0,1-6.274-1.492,45.916,45.916,0,0,1-13.761-9.8c-6.894-6.894-11.327-14.8-11.294-20.129a5.853,5.853,0,0,1,6.25-6.246h.056c5.333,0,13.2,4.427,20.068,11.294,0,0,0,0,.006.006,8.263,8.344,14.434,19.827,9.588,24.669A6.32,6.32,0,0,1,227.736,164.45ZM202.716,129.7h-.044a2.981,2.981,0,0,0-3.353,3.351c-.026,4.524,4.17,11.778,10.441,18.051a42.963,42.963,0,0,0,12.837,9.177c3.577,1.517,6.457,1.672,7.717.417,2.559-2.557-.753-11.629-9.6-20.561C214.468,133.887,207.243,129.7,202.716,129.7Z" transform="translate(-58.366 0)" fill="#3f2a68"></path>
      <path id="Caminho_709" data-name="Caminho 709" d="M233.628,167.157h-.012c-3.267-.01-9.125-3.814-14.927-9.693-4.834-4.772-9.712-11.268-9.677-14.993a3.027,3.027,0,0,1,.888-2.246,2.986,2.986,0,0,1,2.193-.836h.038c3.73,0,10.194,4.855,14.962,9.684,5.873,5.8,9.677,11.653,9.686,14.917a2.966,2.966,0,0,1-3.152,3.168ZM212.22,142.274a.841.841,0,0,0-.319.053c-.419,1.037,2.187,6.5,8.848,13.078,7.136,7.232,12.3,9.22,13.142,8.8.363-.8-1.638-5.955-8.85-13.072,0,0-.009-.009-.012-.013C218.951,144.969,213.816,142.274,212.22,142.274Z" transform="translate(-66.019 -7.651)" fill="#3f2a68"></path>
      <path id="Caminho_710" data-name="Caminho 710" d="M183.03,170.945l-2.609-1.29a16.419,16.419,0,0,1,1.228-2.166,1.458,1.458,0,0,1,2.373,1.694A13.037,13.037,0,0,0,183.03,170.945Z" transform="translate(-48.66 -24.343)" fill="#3f2a68"></path>
      <path id="Caminho_711" data-name="Caminho 711" d="M165.783,199.1a1.5,1.5,0,0,1-.3-.031,1.456,1.456,0,0,1-1.128-1.722,57.474,57.474,0,0,1,3.866-11.954,1.457,1.457,0,0,1,2.656,1.2,54.559,54.559,0,0,0-3.671,11.349A1.456,1.456,0,0,1,165.783,199.1Z" transform="translate(-38.888 -35.064)" fill="#3f2a68"></path>
      <path id="Caminho_712" data-name="Caminho 712" d="M241.773,173.608a1.456,1.456,0,0,1-1.03-.427l-1.2-1.2a1.457,1.457,0,0,1,2.06-2.06l1.2,1.2a1.457,1.457,0,0,1-1.03,2.486Z" transform="translate(-84.295 -25.931)" fill="#3f2a68"></path>
    </g>
  </g>
</svg>
