<?xml version="1.0" encoding="UTF-8"?>
<svg xmlns="http://www.w3.org/2000/svg" width="113" height="84" viewBox="0 0 113 84">
  <g id="Moda" transform="translate(-663 -779)">
    <circle id="Elipse_30" data-name="Elipse 30" cx="20" cy="20" r="20" transform="translate(663 823)" fill="#f6c343" opacity="0.763"></circle>
    <g id="Grupo_162490" data-name="Grupo 162490" transform="translate(-4.221 34.74)">
      <path id="Caminho_732" data-name="Caminho 732" d="M69.789,204.738l6.995,5.651a3.731,3.731,0,0,1-2.345,6.634H5.239a3.731,3.731,0,0,1-2.345-6.634l33.591-27.136a5.337,5.337,0,0,1,6.708,0L63.36,199.545" transform="translate(684.383 595.527)" fill="none" stroke="#3f2a68" stroke-linecap="round" stroke-linejoin="round" stroke-width="4"></path>
      <path id="Caminho_733" data-name="Caminho 733" d="M158.429,12.606a11.106,11.106,0,1,1,11.106,11.106v9.122" transform="translate(554.688 744.76)" fill="none" stroke="#3f2a68" stroke-linecap="round" stroke-linejoin="round" stroke-width="4"></path>
    </g>
    <circle id="Elipse_69" data-name="Elipse 69" cx="20" cy="20" r="20" transform="translate(736 823)" fill="#f6c343" opacity="0"></circle>
  </g>
</svg>
